<?xml version="1.0" encoding="UTF-8"?>
<svg version="1.1" xmlns="http://www.w3.org/2000/svg" width="2000" height="1500">
<path d="M0 0 C0.96611206 0.00182281 1.93222412 0.00364563 2.9276123 0.00552368 C17.60316355 0.05206509 31.91542161 0.61873994 46.375 3.3125 C47.34663086 3.48410645 48.31826172 3.65571289 49.31933594 3.83251953 C118.95550414 16.31615814 180.55231855 55.55314661 222.375 112.3125 C226.64575924 111.75162497 230.48748652 110.67588427 234.54125977 109.29370117 C280.04000298 93.81965428 331.43040114 97.67236386 374.5 118.76953125 C391.55821533 127.41709874 406.41145356 138.2437859 420.375 151.3125 C421.31214844 152.18390625 422.24929688 153.0553125 423.21484375 153.953125 C448.57828745 178.08977964 468.37389172 213.47021992 473.375 248.3125 C473.40531127 249.97889101 473.41331675 251.64627384 473.375 253.3125 C481.14262167 245.6275126 488.30032375 237.49553472 495.16015625 228.99609375 C497.33132827 226.36541443 499.57741357 223.83307576 501.875 221.3125 C504.98958668 217.89510628 507.9668662 214.4072765 510.875 210.8125 C514.48532442 206.34973787 518.25927929 202.08530467 522.125 197.84375 C524.45362053 195.2240519 526.67062947 192.5373469 528.875 189.8125 C532.48532442 185.34973787 536.25927929 181.08530467 540.125 176.84375 C542.45362053 174.2240519 544.67062947 171.5373469 546.875 168.8125 C549.7831338 165.2177235 552.76041332 161.72989372 555.875 158.3125 C559.00863994 154.87367078 562.00724363 151.36381532 564.9375 147.75 C579.86923729 129.4223294 579.86923729 129.4223294 592.375 126.3125 C594.86924274 126.14647066 597.37110212 126.07678458 599.87084961 126.08544922 C600.58388245 126.08515717 601.29691528 126.08486511 602.03155518 126.08456421 C604.3636131 126.08594581 606.69534237 126.10145104 609.02734375 126.1171875 C610.65401536 126.1209218 612.28068922 126.1237668 613.90736389 126.12576294 C618.17019966 126.13336654 622.43289721 126.15298661 626.69567871 126.1751709 C631.0529595 126.19570014 635.41026282 126.20477974 639.76757812 126.21484375 C648.30344855 126.23623585 656.83920704 126.27033188 665.375 126.3125 C665.57153168 125.7044603 665.76806335 125.09642059 665.97055054 124.46995544 C666.23340851 123.66703568 666.49626648 122.86411591 666.76708984 122.03686523 C667.02549652 121.24320053 667.2839032 120.44953583 667.55014038 119.63182068 C671.18438171 109.41314727 677.82738577 100.91839696 685.375 93.3125 C686.220625 92.425625 687.06625 91.53875 687.9375 90.625 C688.741875 89.861875 689.54625 89.09875 690.375 88.3125 C690.89835937 87.79429688 691.42171875 87.27609375 691.9609375 86.7421875 C708.96702492 70.74067909 733.61152404 63.68852472 756.55224609 64.37792969 C777.61804641 65.46729925 797.62871586 73.14570424 813.375 87.3125 C813.85324219 87.74159668 814.33148437 88.17069336 814.82421875 88.61279297 C834.45243299 106.48127977 843.58995982 129.62352922 845.5625 155.80078125 C846.34386432 181.73230956 835.05034425 205.88062788 817.625 224.5 C798.14453101 243.00449359 774.17978112 250.86283702 747.59375 250.52734375 C725.74377169 249.88352118 705.52259885 240.83773413 689.375 226.3125 C688.66730469 225.68730469 687.95960937 225.06210938 687.23046875 224.41796875 C677.57982428 215.37643794 670.46344392 203.45277456 665.375 191.3125 C665.375 190.3225 665.375 189.3325 665.375 188.3125 C658.17026377 188.15026687 650.96899848 188.08344653 643.76245117 188.08056641 C641.31531054 188.06861732 638.86817236 188.03543082 636.42163086 187.97998047 C622.20243394 187.00700196 622.20243394 187.00700196 609.41503906 191.87060547 C606.55424615 194.69181774 604.47347468 197.89056914 602.375 201.3125 C600.85650464 203.20631439 599.31793308 205.08440881 597.75 206.9375 C597.02554687 207.83726562 596.30109375 208.73703125 595.5546875 209.6640625 C593.39742601 212.28525119 591.16189 214.80404281 588.875 217.3125 C585.76041332 220.72989372 582.7831338 224.2177235 579.875 227.8125 C576.26467558 232.27526213 572.49072071 236.53969533 568.625 240.78125 C566.29637947 243.4009481 564.07937053 246.0876531 561.875 248.8125 C558.26467558 253.27526213 554.49072071 257.53969533 550.625 261.78125 C548.29637947 264.4009481 546.07937053 267.0876531 543.875 269.8125 C540.26467558 274.27526213 536.49072071 278.53969533 532.625 282.78125 C530.29637947 285.4009481 528.07937053 288.0876531 525.875 290.8125 C522.9668662 294.4072765 519.98958668 297.89510628 516.875 301.3125 C512.94761517 305.62237796 509.2575802 310.08645884 505.59375 314.62109375 C502.76557175 318.05175363 499.80562177 321.34951864 496.80859375 324.6328125 C495.26680208 326.0712232 495.26680208 326.0712232 495.375 327.3125 C496.01187744 327.42207031 496.64875488 327.53164063 497.30493164 327.64453125 C526.92481167 332.85707922 553.93189175 342.535694 578.375 360.3125 C579.2117627 360.90804687 579.2117627 360.90804687 580.06542969 361.515625 C602.13302594 377.34980006 618.9734359 397.91178754 632.375 421.3125 C632.74367188 421.94961914 633.11234375 422.58673828 633.4921875 423.24316406 C645.65986786 444.63952679 653.375 470.67959528 653.375 495.3125 C697.925 495.3125 742.475 495.3125 788.375 495.3125 C789.365 492.3425 790.355 489.3725 791.375 486.3125 C792.6250924 483.79639046 793.86289546 481.45031446 795.3125 479.0625 C795.69656006 478.42699219 796.08062012 477.79148437 796.47631836 477.13671875 C800.92480492 470.05714195 806.45064871 464.17138884 812.375 458.3125 C813.04015625 457.63703125 813.7053125 456.9615625 814.390625 456.265625 C832.59610425 439.00999684 856.99070703 433.59404334 881.27734375 434 C907.18562159 434.97049894 928.43117495 447.50261302 946 466.0625 C959.14601585 481.06660997 967.61618031 501.28625865 968.375 521.3125 C968.41496094 522.14652344 968.45492188 522.98054687 968.49609375 523.83984375 C969.10652358 548.29294451 960.63687208 571.08954872 944.375 589.3125 C943.64925781 590.13234375 942.92351562 590.9521875 942.17578125 591.796875 C926.43008997 608.55757778 904.67160737 618.55815198 881.734375 619.625 C854.85479949 620.39766135 831.70977607 613.39612353 811.7421875 594.640625 C810.96101563 593.87234375 810.17984375 593.1040625 809.375 592.3125 C808.61445312 591.56484375 807.85390625 590.8171875 807.0703125 590.046875 C802.54972688 585.32294124 798.89314996 580.31279163 795.5 574.75 C795.13060303 574.14913574 794.76120605 573.54827148 794.38061523 572.92919922 C791.52456371 568.05885208 790.23880687 563.9039206 788.375 558.3125 C761.315 558.6425 734.255 558.9725 706.375 559.3125 C708.685 561.6225 710.995 563.9325 713.375 566.3125 C730.79735921 586.61119209 743.59366684 611.49336314 750.375 637.3125 C750.57319336 638.06144531 750.77138672 638.81039062 750.97558594 639.58203125 C762.63996535 685.13802233 755.1302354 734.47628969 731.625 775.0625 C719.85037516 794.66226736 704.44210953 812.29928926 686.375 826.3125 C685.83439941 826.73337891 685.29379883 827.15425781 684.73681641 827.58789062 C661.9687532 845.08214752 627.78535061 863.3125 598.375 863.3125 C598.375 914.4625 598.375 965.6125 598.375 1018.3125 C679.555 1018.3125 760.735 1018.3125 844.375 1018.3125 C844.375 996.5325 844.375 974.7525 844.375 952.3125 C841.405 951.3225 838.435 950.3325 835.375 949.3125 C812.30619234 938.47042166 795.96840676 919.50869529 787.06640625 895.83203125 C779.13411402 871.51214628 780.98901505 846.58951121 791.71484375 823.41796875 C803.55439247 800.4931916 823.47772213 784.05347036 847.875 776 C872.14210316 769.15467913 897.59047679 771.38623021 919.87890625 783.1640625 C935.24380069 792.27052886 947.46092511 803.80415766 956.375 819.3125 C956.89964844 820.20195313 957.42429687 821.09140625 957.96484375 822.0078125 C969.40575879 842.91004405 971.17747931 868.50146624 964.85302734 891.23291016 C960.93295537 904.34531286 954.60890005 916.14856685 945.375 926.3125 C944.57578125 927.20453125 943.7765625 928.0965625 942.953125 929.015625 C933.3851153 939.14978912 921.58151314 947.58700566 908.375 952.3125 C907.715 952.3125 907.055 952.3125 906.375 952.3125 C906.38388245 953.59321381 906.39276489 954.87392761 906.4019165 956.19345093 C906.48314651 968.28695767 906.5430347 980.38040875 906.58224869 992.47412682 C906.60308702 998.69103782 906.63133652 1004.90772786 906.67675781 1011.12451172 C906.72034876 1017.12862941 906.74416533 1023.13253509 906.75450897 1029.13679886 C906.76187652 1031.42284098 906.7762635 1033.70887204 906.79792023 1035.99482346 C906.82712968 1039.206924 906.8309486 1042.41815824 906.82910156 1045.63037109 C906.84348267 1046.56689514 906.85786377 1047.50341919 906.87268066 1048.46832275 C906.81425581 1057.91228258 903.78924417 1065.69166482 897.296875 1072.55859375 C888.69202659 1080.4113924 880.10341471 1081.61401101 868.82740784 1081.55300903 C867.6698651 1081.55471788 866.51232236 1081.55642673 865.31970257 1081.55818737 C862.12021335 1081.5609052 858.92088747 1081.55468074 855.72141755 1081.54463124 C852.2661574 1081.53597447 848.81090454 1081.53891848 845.3556366 1081.54043579 C839.37361928 1081.54148324 833.39164568 1081.53522134 827.40963936 1081.52396011 C818.76072552 1081.50768902 810.11183277 1081.50249546 801.46290528 1081.49998413 C787.42976668 1081.49560955 773.39665136 1081.48230689 759.36352539 1081.46337891 C745.73364376 1081.44501396 732.10376846 1081.43086046 718.47387695 1081.42236328 C717.63338326 1081.42183783 716.79288958 1081.42131239 715.92692638 1081.42077102 C711.71031277 1081.4181609 707.49369911 1081.41563349 703.27708542 1081.41314721 C668.30970293 1081.3924221 633.34236352 1081.35555632 598.375 1081.3125 C598.375 1106.7225 598.375 1132.1325 598.375 1158.3125 C599.695 1158.9725 601.015 1159.6325 602.375 1160.3125 C604.40224626 1161.6803153 606.39313499 1163.0693708 608.375 1164.5 C608.96659912 1164.92273193 609.55819824 1165.34546387 610.16772461 1165.78100586 C614.01592031 1168.54996669 617.8026531 1171.39076827 621.56640625 1174.2734375 C622.45521484 1174.95124268 623.34402344 1175.62904785 624.25976562 1176.32739258 C626.02360099 1177.67616056 627.78159689 1179.03260483 629.53320312 1180.3972168 C630.34853516 1181.02023682 631.16386719 1181.64325684 632.00390625 1182.28515625 C632.72650635 1182.84468994 633.44910645 1183.40422363 634.19360352 1183.98071289 C636.6631108 1185.48839753 638.49754614 1186.05676481 641.375 1186.3125 C643.85773737 1185.1794583 646.05114908 1184.01961098 648.375 1182.625 C667.81709324 1171.66132418 691.97691343 1169.11604356 713.56591797 1174.89941406 C738.57132736 1182.17698926 759.51998219 1197.05065805 772.37988281 1220.11474609 C783.98811614 1242.03039061 786.72419463 1267.34365279 780.375 1291.3125 C772.84845134 1315.46362319 757.04903325 1335.61404673 734.62841797 1347.44458008 C712.61402818 1358.69111837 687.57532184 1362.01963589 663.66699219 1354.68896484 C638.86667571 1346.58432754 619.21331144 1330.30696767 607.12597656 1307.1484375 C596.15713812 1285.05485835 595.88020201 1261.99603377 601.375 1238.3125 C600.89893311 1237.96171387 600.42286621 1237.61092773 599.93237305 1237.24951172 C599.25730713 1236.75209473 598.58224121 1236.25467773 597.88671875 1235.7421875 C597.12721924 1235.18257324 596.36771973 1234.62295898 595.58520508 1234.04638672 C593.88055 1232.79029035 592.17596188 1231.53410311 590.47143555 1230.27783203 C585.33415998 1226.49177799 580.19467031 1222.70876479 575.05297852 1218.92871094 C572.69065928 1217.18982552 570.33140133 1215.44685459 567.97265625 1213.703125 C564.94986345 1211.46874806 561.91534507 1209.25190748 558.87109375 1207.046875 C548.57818488 1199.54674206 540.00777236 1193.05958553 536.375 1180.3125 C535.8406208 1175.91657932 535.85090189 1171.57537964 535.89398193 1167.15133667 C535.88885538 1165.20904181 535.88885538 1165.20904181 535.88362527 1163.22750866 C535.87473631 1159.65842396 535.89060408 1156.08982492 535.91073751 1152.52080202 C535.92808664 1148.66272864 535.92216056 1144.80468042 535.91912842 1140.94657898 C535.91703575 1134.27048176 535.92953603 1127.59454148 535.95207977 1120.91848373 C535.98465245 1111.26617156 535.99501217 1101.61393491 536.00003174 1091.96157373 C536.00877614 1076.29953484 536.03536849 1060.63757949 536.07324219 1044.97558594 C536.10998443 1029.76562924 536.13828535 1014.55569527 536.15527344 999.34570312 C536.15684978 997.93828857 536.15684978 997.93828857 536.15845796 996.50244139 C536.16367829 991.79516543 536.16873308 987.08788931 536.17370558 982.38061309 C536.215141 943.3578345 536.28886446 904.33521054 536.375 865.3125 C506.345 865.3125 476.315 865.3125 445.375 865.3125 C445.375 999.2925 445.375 1133.2725 445.375 1271.3125 C447.025 1271.6425 448.675 1271.9725 450.375 1272.3125 C459.35363036 1275.96129028 466.83752213 1281.30730463 474.375 1287.3125 C475.426875 1288.09625 476.47875 1288.88 477.5625 1289.6875 C494.84811153 1305.82073743 505.60108939 1328.78091611 506.65625 1352.39453125 C507.37961747 1380.04826686 498.489476 1404.06025757 479.375 1424.3125 C459.23256552 1443.25598004 435.35036551 1450.96339317 408.16015625 1450.5859375 C383.6030214 1449.76669039 361.12397859 1437.97255885 344.375 1420.3125 C327.56300063 1401.65622134 319.37516573 1377.37922858 320.53125 1352.37890625 C322.26788062 1328.25092898 332.53760924 1305.93145809 350.14453125 1289.203125 C359.70671977 1281.09787239 370.07634824 1275.96182588 381.375 1270.3125 C381.705 1136.6625 382.035 1003.0125 382.375 865.3125 C331.885 865.3125 281.395 865.3125 229.375 865.3125 C229.375 876.2025 229.375 887.0925 229.375 898.3125 C236.58150391 898.26029297 236.58150391 898.26029297 243.93359375 898.20703125 C246.99154874 898.19168842 250.04945575 898.17724559 253.10742188 898.16601562 C257.95281935 898.14813673 262.79804547 898.12706944 267.64331055 898.08618164 C271.55313549 898.05339719 275.46277647 898.03560711 279.37272835 898.02786827 C280.85855057 898.02235879 282.34436361 898.01160073 283.83010674 897.99530983 C294.78898491 897.88001257 305.07990994 898.31579447 313.375 906.3125 C319.88784512 914.18921151 323.0084211 922.39064606 322.65234375 932.6171875 C321.78850769 941.01221397 318.24456654 947.29093273 312.375 953.3125 C305.97726789 958.38869286 299.54978052 960.56955048 291.35986328 960.53955078 C290.34905449 960.53998886 290.34905449 960.53998886 289.31782532 960.54043579 C287.11018596 960.53905235 284.90289225 960.52353834 282.6953125 960.5078125 C281.15689274 960.50407885 279.6184706 960.50123354 278.08004761 960.49923706 C274.0457087 960.49162829 270.01151552 960.47200372 265.97723389 960.4498291 C261.12884533 960.42569885 256.28040784 960.41657655 251.43197632 960.40492249 C244.07954976 960.38557751 236.72744248 960.34723595 229.375 960.3125 C229.375 970.2125 229.375 980.1125 229.375 990.3125 C234.02335937 990.27769531 238.67171875 990.24289062 243.4609375 990.20703125 C246.42318981 990.19168477 249.38539243 990.17724169 252.34765625 990.16601562 C257.03933009 990.14815073 261.73082664 990.12712194 266.42236328 990.08618164 C270.2090002 990.05334839 273.99544672 990.03559706 277.78221512 990.02786827 C279.21976336 990.0223674 280.65730236 990.01162671 282.09476852 989.99530983 C293.54135897 989.87066245 303.31838352 990.61648199 312.33203125 998.2421875 C319.0501448 1005.05021844 321.98084231 1012.8157632 322.375 1022.3125 C321.98933313 1031.12257745 318.86778678 1038.99286321 312.44921875 1045.1640625 C304.94906691 1051.07680356 297.3603996 1053.44451048 287.84057617 1053.42602539 C286.53960495 1053.42594986 285.23863373 1053.42587433 283.89823914 1053.42579651 C282.48814861 1053.42069062 281.07805849 1053.41547464 279.66796875 1053.41015625 C278.21779937 1053.40828979 276.76762935 1053.40686696 275.31745911 1053.40586853 C271.51167034 1053.4020613 267.70592009 1053.39224642 263.90014648 1053.38116455 C260.01221233 1053.37091177 256.12427192 1053.36636264 252.23632812 1053.36132812 C244.61586791 1053.35062246 236.99543936 1053.3335677 229.375 1053.3125 C229.4064209 1054.77888916 229.4064209 1054.77888916 229.43847656 1056.27490234 C229.5115772 1059.9462993 229.55705042 1063.61763372 229.59472656 1067.28955078 C229.61468422 1068.87039045 229.6418606 1070.45115783 229.67675781 1072.03173828 C229.94258607 1084.39275237 229.21792455 1094.15479223 220.2890625 1103.55859375 C209.82150113 1113.15029795 197.70410274 1112.58920566 184.3125 1112.4375 C182.76367766 1112.42745008 181.21484901 1112.41832779 179.66601562 1112.41015625 C175.90218572 1112.38830207 172.13866377 1112.35388343 168.375 1112.3125 C168.38166183 1112.93731262 168.38832367 1113.56212524 168.39518738 1114.20587158 C168.46201056 1120.7605673 168.50699392 1127.31516487 168.53979492 1133.87011719 C168.55479978 1136.3102614 168.57521015 1138.75037902 168.60131836 1141.19042969 C168.63806851 1144.71556192 168.65481002 1148.24033488 168.66796875 1151.765625 C168.68345261 1152.8411261 168.69893646 1153.9166272 168.71488953 1155.02471924 C168.71716686 1165.47877115 167.40193294 1175.21125778 160.39453125 1183.33984375 C153.3622456 1190.2089042 146.26635681 1193.19771543 136.5625 1193.6875 C127.36111208 1193.43347395 119.92376384 1189.92099443 113.3203125 1183.6015625 C107.90109316 1177.2247301 105.24245578 1170.101782 105.26147461 1161.80957031 C105.26158791 1160.15831146 105.26158791 1160.15831146 105.26170349 1158.47369385 C105.26686478 1157.29128113 105.27202606 1156.10886841 105.27734375 1154.890625 C105.2787587 1153.67550232 105.28017365 1152.46037964 105.28163147 1151.20843506 C105.28723012 1147.32643169 105.2997824 1143.44448594 105.3125 1139.5625 C105.31751517 1136.93099042 105.32207805 1134.29947993 105.32617188 1131.66796875 C105.33634832 1125.21610576 105.35592418 1118.7643674 105.375 1112.3125 C95.475 1112.3125 85.575 1112.3125 75.375 1112.3125 C75.42140625 1116.39496094 75.4678125 1120.47742187 75.515625 1124.68359375 C75.54138916 1127.95996871 75.56306597 1131.23631464 75.58200073 1134.51273346 C75.60303329 1137.95978979 75.63108951 1141.40644604 75.67675781 1144.85327148 C75.72894646 1148.81749472 75.74802121 1152.78156048 75.765625 1156.74609375 C75.78627014 1157.96832138 75.80691528 1159.19054901 75.82818604 1160.44981384 C75.83088069 1170.80057648 73.37694511 1177.94101504 66.29296875 1185.5234375 C59.52521461 1191.8363324 51.80922244 1194.8408235 42.515625 1194.56640625 C32.0365414 1193.32344925 25.28539486 1188.54465548 18.20703125 1181.01953125 C12.95266851 1173.25562212 12.96453903 1165.07318473 13.08203125 1155.96484375 C13.08627609 1154.71240372 13.09052094 1153.45996368 13.09489441 1152.16957092 C13.10876316 1148.8700067 13.1356273 1145.57089767 13.16900635 1142.27148438 C13.19991792 1138.89263525 13.2136098 1135.51371702 13.22851562 1132.13476562 C13.2589102 1125.52698561 13.31765151 1118.92032012 13.375 1112.3125 C3.475 1112.3125 -6.425 1112.3125 -16.625 1112.3125 C-16.57859375 1116.15519531 -16.5321875 1119.99789063 -16.484375 1123.95703125 C-16.45311899 1127.70693646 -16.42886551 1131.45682677 -16.40527344 1135.20678711 C-16.38524279 1137.79930185 -16.35801033 1140.39177188 -16.32324219 1142.98413086 C-16.27434859 1146.72521033 -16.25194461 1150.4656889 -16.234375 1154.20703125 C-16.21372986 1155.35331497 -16.19308472 1156.49959869 -16.17181396 1157.68061829 C-16.16882758 1168.55677554 -18.72877609 1177.42891506 -26.33984375 1185.3671875 C-32.99756054 1191.03478231 -40.6704221 1193.68735109 -49.390625 1193.5234375 C-57.38104427 1192.76909722 -64.62115198 1189.62757005 -70.625 1184.3125 C-79.04283234 1174.09213397 -79.78367199 1164.23351744 -79.72265625 1151.47265625 C-79.7212413 1150.35056259 -79.71982635 1149.22846893 -79.71836853 1148.07237244 C-79.712794 1144.50655392 -79.70024616 1140.94079938 -79.6875 1137.375 C-79.68248171 1134.9498707 -79.67791938 1132.52474041 -79.67382812 1130.09960938 C-79.66368601 1124.17052875 -79.64410554 1118.24158556 -79.625 1112.3125 C-89.195 1112.3125 -98.765 1112.3125 -108.625 1112.3125 C-108.59019531 1116.09460937 -108.55539062 1119.87671875 -108.51953125 1123.7734375 C-108.49609542 1127.46044155 -108.47790172 1131.14743711 -108.46020508 1134.83447266 C-108.44517364 1137.38529206 -108.42474295 1139.93608585 -108.39868164 1142.48681641 C-108.36205028 1146.16575463 -108.34521654 1149.84434935 -108.33203125 1153.5234375 C-108.31654739 1154.65300873 -108.30106354 1155.78257996 -108.28511047 1156.94638062 C-108.2826512 1168.67187218 -110.96700271 1178.62530097 -119.40625 1187.1015625 C-125.4700516 1192.14644662 -132.85988993 1194.30797951 -140.6875 1194.6875 C-150.40222276 1193.76228831 -157.61084174 1190.59953762 -164.34765625 1183.49609375 C-171.49413489 1174.80443054 -172.06415553 1165.17575465 -171.91796875 1154.3046875 C-171.91372391 1153.0980545 -171.90947906 1151.89142151 -171.90510559 1150.64822388 C-171.88843155 1146.82774707 -171.8507995 1143.007815 -171.8125 1139.1875 C-171.79743863 1136.583341 -171.78375278 1133.97917366 -171.77148438 1131.375 C-171.73856497 1125.02065025 -171.68847877 1118.66661406 -171.625 1112.3125 C-172.57753662 1112.32297363 -173.53007324 1112.33344727 -174.51147461 1112.34423828 C-178.08418948 1112.38075181 -181.65688825 1112.40351318 -185.22973633 1112.42236328 C-186.76882715 1112.43235006 -188.30789935 1112.44594419 -189.84692383 1112.46337891 C-202.71953064 1112.60543299 -213.92711434 1112.56734189 -223.796875 1103.265625 C-230.50404511 1096.16679532 -233.12419935 1089.52189726 -232.91796875 1079.875 C-232.91372391 1079.10945801 -232.90947906 1078.34391602 -232.90510559 1077.55517578 C-232.88848328 1075.14057313 -232.85086506 1072.72684489 -232.8125 1070.3125 C-232.79743178 1068.66277258 -232.78374714 1067.01303191 -232.77148438 1065.36328125 C-232.73863417 1061.3460238 -232.68696973 1057.32940948 -232.625 1053.3125 C-233.4775386 1053.31916183 -234.33007721 1053.32582367 -235.20845032 1053.33268738 C-243.28415632 1053.3930609 -251.35978536 1053.4386069 -259.43566608 1053.46793652 C-263.58652266 1053.4835226 -267.73719111 1053.50463005 -271.88793945 1053.53881836 C-275.90151478 1053.57166598 -279.91491036 1053.58940593 -283.92860985 1053.59713173 C-285.45185356 1053.60263005 -286.97508862 1053.61336553 -288.49825478 1053.62969017 C-300.40954321 1053.7521511 -311.22131745 1053.33030772 -320.6171875 1045.33203125 C-327.37160076 1038.53819534 -330.52148225 1031.42270459 -330.9375 1021.9375 C-330.64833032 1012.05470085 -326.92715414 1004.34099457 -319.80859375 997.58984375 C-310.13488525 989.63590565 -299.01597537 989.89431168 -287.1171875 990.01953125 C-285.53964647 990.02513767 -283.96210016 990.02940281 -282.384552 990.03239441 C-278.26470104 990.04376102 -274.14517548 990.07315596 -270.02545166 990.10650635 C-265.80867919 990.13738539 -261.59185333 990.15093757 -257.375 990.16601562 C-249.1248352 990.19803506 -240.87499577 990.25073431 -232.625 990.3125 C-232.625 980.4125 -232.625 970.5125 -232.625 960.3125 C-234.84984131 960.33344727 -237.07468262 960.35439453 -239.36694336 960.37597656 C-246.7428999 960.44245052 -254.11887016 960.48651653 -261.49504757 960.51974869 C-265.96438974 960.54056518 -270.43342329 960.56877326 -274.90258789 960.61425781 C-279.22090727 960.65792883 -283.53893102 960.68168171 -287.8574543 960.69200897 C-289.49959525 960.69936241 -291.14172122 960.71372155 -292.78373528 960.73542023 C-309.07940203 960.94206952 -309.07940203 960.94206952 -316.625 956.3125 C-317.676875 955.755625 -318.72875 955.19875 -319.8125 954.625 C-326.64311959 949.00871278 -330.79628935 940.83859634 -331.90625 932.09765625 C-332.31326885 922.44791773 -329.07086129 914.39186117 -322.625 907.3125 C-315.09940876 899.78690876 -306.84086269 897.89542203 -296.48905373 897.84836197 C-294.1460439 897.85961915 -291.80375529 897.89037894 -289.4609375 897.921875 C-287.81613864 897.92934936 -286.17133078 897.93503664 -284.52651978 897.93902588 C-280.22901163 897.95418835 -275.93205725 897.99338706 -271.63476562 898.0378418 C-266.46181174 898.08625436 -261.28867112 898.10437334 -256.11555481 898.12765503 C-248.28498651 898.16624565 -240.45562964 898.24296308 -232.625 898.3125 C-232.625 887.4225 -232.625 876.5325 -232.625 865.3125 C-283.115 865.3125 -333.605 865.3125 -385.625 865.3125 C-385.625 999.2925 -385.625 1133.2725 -385.625 1271.3125 C-383.975 1271.6425 -382.325 1271.9725 -380.625 1272.3125 C-371.55579684 1276.1328603 -364.0332342 1280.82704585 -356.625 1287.3125 C-355.95210937 1287.84230469 -355.27921875 1288.37210938 -354.5859375 1288.91796875 C-338.26278988 1302.08704203 -328.76738861 1322.35165891 -325.015625 1342.6015625 C-322.02826628 1370.98147033 -328.07197702 1396.00700164 -346.0859375 1418.3671875 C-359.88193113 1434.59595105 -378.90665623 1444.97781106 -399.625 1449.3125 C-400.53507813 1449.50328125 -401.44515625 1449.6940625 -402.3828125 1449.890625 C-427.0888039 1453.10538051 -451.33833369 1447.93572454 -471.75390625 1433.53125 C-491.92890862 1417.94022776 -503.72021358 1398.27469652 -509.23828125 1373.56640625 C-512.22701985 1348.41873702 -507.8660675 1323.26059364 -492.3125 1302.75 C-491.09435446 1301.26174392 -489.86476264 1299.78279702 -488.625 1298.3125 C-487.98046875 1297.51070312 -487.3359375 1296.70890625 -486.671875 1295.8828125 C-477.35176299 1284.80223488 -464.96238624 1276.80757591 -451.625 1271.3125 C-450.635 1271.3125 -449.645 1271.3125 -448.625 1271.3125 C-448.625 1137.3325 -448.625 1003.3525 -448.625 865.3125 C-478.655 865.3125 -508.685 865.3125 -539.625 865.3125 C-539.60928955 874.74183105 -539.5935791 884.17116211 -539.57739258 893.88623047 C-539.52922999 924.06577654 -539.49586718 954.24532277 -539.47180401 984.42489731 C-539.46805195 989.11366861 -539.46416898 993.8024398 -539.46020508 998.49121094 C-539.45941815 999.42465026 -539.45863122 1000.35808958 -539.45782044 1001.31981494 C-539.44477098 1016.42858308 -539.42111965 1031.53731693 -539.39354161 1046.64606474 C-539.36547464 1062.15214105 -539.348821 1077.65819942 -539.34273452 1093.16430008 C-539.33862076 1102.73031175 -539.32563356 1112.29622649 -539.3012506 1121.86220832 C-539.28537747 1128.42435991 -539.28060322 1134.98646149 -539.28449587 1141.54863088 C-539.28641496 1145.33313416 -539.28349895 1149.11746821 -539.26738358 1152.9019413 C-539.2500165 1157.01049236 -539.2560516 1161.11868486 -539.26423645 1165.2272644 C-539.25549793 1166.41600281 -539.2467594 1167.60474121 -539.23775607 1168.82950199 C-539.29519154 1179.5048865 -541.08109518 1188.42569042 -548.625 1196.3125 C-555.34790538 1202.53476349 -562.91375196 1207.75480265 -570.35180664 1213.07495117 C-577.25103195 1218.01279356 -584.04124298 1223.08788658 -590.81225586 1228.19970703 C-595.37147258 1231.6383553 -599.96161943 1235.01629526 -604.625 1238.3125 C-604.4084375 1239.1890625 -604.191875 1240.065625 -603.96875 1240.96875 C-598.28542698 1266.85944377 -601.33575678 1291.74747689 -614.5859375 1314.7109375 C-628.0681682 1335.4104218 -648.53419883 1350.39456746 -672.625 1356.1875 C-674.62061811 1356.58515984 -676.62030083 1356.96349248 -678.625 1357.3125 C-679.90375 1357.539375 -681.1825 1357.76625 -682.5 1358 C-706.66854751 1360.37144412 -731.32835926 1354.54228284 -750.75 1339.5625 C-769.95693719 1323.38494965 -783.80948102 1302.70431008 -786.625 1277.3125 C-788.18558531 1249.47890648 -783.02301645 1225.37894967 -764.0625 1204 C-762.58927862 1202.43189317 -761.11062083 1200.86886468 -759.625 1199.3125 C-759.08617187 1198.69890625 -758.54734375 1198.0853125 -757.9921875 1197.453125 C-744.09340923 1182.2273277 -720.81539833 1173.38396392 -700.625 1172.3125 C-681.8199889 1171.51546642 -662.89645388 1175.02214557 -646.88671875 1185.30859375 C-643.91430869 1186.62795366 -642.6728044 1186.41064021 -639.625 1185.3125 C-636.85056169 1183.50171216 -636.85056169 1183.50171216 -634 1181.125 C-632.86498479 1180.22181338 -631.72814605 1179.32091531 -630.58984375 1178.421875 C-629.96706543 1177.92880859 -629.34428711 1177.43574219 -628.70263672 1176.92773438 C-624.7167006 1173.82891495 -620.63429732 1170.85950857 -616.5625 1167.875 C-614.94659442 1166.68882956 -613.33070789 1165.50263315 -611.71484375 1164.31640625 C-611.02253662 1163.80924072 -610.33022949 1163.3020752 -609.61694336 1162.77954102 C-608.95960205 1162.29541748 -608.30226074 1161.81129395 -607.625 1161.3125 C-606.59026299 1160.75382736 -606.59026299 1160.75382736 -605.53462219 1160.18386841 C-603.18213419 1157.87850574 -603.13255755 1156.27227262 -603.06385803 1153.05271912 C-603.0688884 1152.34349808 -603.07391876 1151.63427704 -603.07910156 1150.90356445 C-603.06876389 1150.15210144 -603.05842621 1149.40063843 -603.04777527 1148.62640381 C-603.01827816 1146.14264602 -603.0168467 1143.65970065 -603.015625 1141.17578125 C-603.00064794 1139.45369404 -602.98392179 1137.73162123 -602.96551514 1136.00956726 C-602.92177585 1131.47711539 -602.90182808 1126.94485729 -602.88677979 1122.41223145 C-602.8672323 1117.78707388 -602.82525972 1113.16212631 -602.78515625 1108.53710938 C-602.70978301 1099.46230425 -602.65953472 1090.38754597 -602.625 1081.3125 C-603.21579027 1081.31363916 -603.80658054 1081.31477832 -604.41527355 1081.315952 C-639.44602395 1081.38311572 -674.47676324 1081.43457458 -709.50756466 1081.46569599 C-713.71565519 1081.46944802 -717.9237456 1081.47333099 -722.13183594 1081.47729492 C-722.96957558 1081.47808185 -723.80731523 1081.47886878 -724.67044093 1081.47967956 C-738.22724482 1081.49272628 -751.78401047 1081.51637608 -765.34079169 1081.54395839 C-779.25581029 1081.57203301 -793.17080889 1081.58868061 -807.08585465 1081.59476548 C-815.6691683 1081.59887766 -824.25237385 1081.61185621 -832.83565421 1081.6362494 C-838.72501395 1081.65213199 -844.61431797 1081.65689466 -850.50369756 1081.65300413 C-853.89939927 1081.65108648 -857.29476059 1081.65563473 -860.69045448 1081.67011642 C-864.37865541 1081.68507306 -868.06639626 1081.6814415 -871.75460815 1081.67326355 C-872.81883621 1081.68200207 -873.88306427 1081.6907406 -874.97954166 1081.69974393 C-884.7786186 1081.64113905 -892.9597991 1079.76266741 -900.578125 1073.4140625 C-906.22365111 1067.61770172 -909.75496579 1060.96390288 -909.74525452 1052.84527588 C-909.74662918 1051.95629105 -909.74800385 1051.06730621 -909.74942017 1050.15138245 C-909.74582489 1049.183936 -909.74222961 1048.21648956 -909.73852539 1047.21972656 C-909.73867142 1046.19501755 -909.73881744 1045.17030853 -909.7389679 1044.11454773 C-909.73827121 1040.72738529 -909.73049015 1037.34027783 -909.72265625 1033.953125 C-909.72079121 1031.60471629 -909.71936771 1029.25630719 -909.71836853 1026.90789795 C-909.71455016 1020.72653123 -909.70472564 1014.545188 -909.69366455 1008.36383057 C-909.68343584 1002.05635903 -909.67886778 995.74888369 -909.67382812 989.44140625 C-909.6631028 977.06509384 -909.6460345 964.68879888 -909.625 952.3125 C-910.23467117 952.11474472 -910.84434235 951.91698944 -911.4724884 951.71324158 C-912.67877144 951.31752708 -912.67877144 951.31752708 -913.90942383 950.91381836 C-914.70472 950.65418808 -915.50001617 950.3945578 -916.31941223 950.12705994 C-937.03572949 942.80802299 -953.69648951 924.56299392 -963.046875 905.21289062 C-973.71324606 882.01240842 -974.4187034 857.03097071 -966.3125 833 C-957.01933329 808.69479475 -939.41690647 790.9580792 -916.09375 779.8125 C-892.06834368 769.42313511 -865.95512458 770.09983247 -841.77197266 779.42529297 C-822.888732 787.22853342 -807.7854137 801.79537167 -797.625 819.3125 C-797.0990625 820.20324219 -796.573125 821.09398437 -796.03125 822.01171875 C-784.59972501 842.92091115 -782.821273 868.49698176 -789.14697266 891.23291016 C-795.81103098 913.52378054 -810.95031415 934.15079579 -831.58837891 945.38085938 C-844.72091491 952.3125 -844.72091491 952.3125 -847.625 952.3125 C-847.625 974.0925 -847.625 995.8725 -847.625 1018.3125 C-766.775 1018.3125 -685.925 1018.3125 -602.625 1018.3125 C-602.625 966.8325 -602.625 915.3525 -602.625 862.3125 C-606.915 861.6525 -611.205 860.9925 -615.625 860.3125 C-618.91103061 859.5082805 -622.08989106 858.67984512 -625.3125 857.6875 C-626.15772217 857.42952637 -627.00294434 857.17155273 -627.8737793 856.90576172 C-636.78921872 854.08773471 -645.23337076 850.41494325 -653.625 846.3125 C-654.27807129 845.99555176 -654.93114258 845.67860352 -655.60400391 845.35205078 C-681.86743713 832.43791296 -704.35882614 812.84145116 -721.625 789.3125 C-722.03959473 788.75820313 -722.45418945 788.20390625 -722.88134766 787.6328125 C-751.10754082 749.505636 -760.36100722 700.38437569 -753.59375 654.0625 C-748.29755109 621.10351011 -733.46609883 588.47878339 -710.3671875 564.1953125 C-708.4540245 562.22715743 -708.4540245 562.22715743 -706.625 559.3125 C-734.675 559.3125 -762.725 559.3125 -791.625 559.3125 C-794.265 564.5925 -796.905 569.8725 -799.625 575.3125 C-813.19736168 596.53473826 -833.13238038 612.32031471 -857.99658203 617.83886719 C-882.81596385 622.8339069 -908.72201228 619.01139233 -929.95703125 604.96606445 C-932.57286988 603.15695475 -935.10620259 601.25378308 -937.625 599.3125 C-938.37265625 598.73757813 -939.1203125 598.16265625 -939.890625 597.5703125 C-958.05783367 582.62170379 -969.33573275 559.56022092 -971.625 536.3125 C-973.51840922 509.83294672 -965.99565941 485.6558702 -948.625 465.3125 C-947.66980469 464.06919922 -947.66980469 464.06919922 -946.6953125 462.80078125 C-933.60092803 447.0628135 -910.88566792 436.21923379 -890.625 434.3125 C-864.25970727 432.55956432 -839.97343995 437.57489379 -819.34375 454.92578125 C-818.4465625 455.71339844 -817.549375 456.50101562 -816.625 457.3125 C-815.8928125 457.94542969 -815.160625 458.57835937 -814.40625 459.23046875 C-803.7359034 469.15981906 -797.76159268 481.16265855 -791.625 494.3125 C-746.085 494.3125 -700.545 494.3125 -653.625 494.3125 C-652.14 483.4225 -652.14 483.4225 -650.625 472.3125 C-643.10292 439.92576669 -629.62732759 410.65999295 -606.625 386.3125 C-605.49537767 384.98308052 -604.37020688 383.64986282 -603.25 382.3125 C-578.10794725 353.67690462 -540.54804027 335.44737798 -503.43359375 328.85546875 C-500.68552954 328.45497843 -500.68552954 328.45497843 -498.625 327.3125 C-503.00748861 321.86288059 -507.41349367 316.48103075 -512.125 311.3125 C-516.04391252 307.01258209 -519.71670869 302.55330453 -523.375 298.03125 C-525.56001569 295.39102271 -527.81671391 292.8452028 -530.125 290.3125 C-534.04391252 286.01258209 -537.71670869 281.55330453 -541.375 277.03125 C-543.56001569 274.39102271 -545.81671391 271.8452028 -548.125 269.3125 C-552.04391252 265.01258209 -555.71670869 260.55330453 -559.375 256.03125 C-561.56001569 253.39102271 -563.81671391 250.8452028 -566.125 248.3125 C-570.04391252 244.01258209 -573.71670869 239.55330453 -577.375 235.03125 C-579.56001569 232.39102271 -581.81671391 229.8452028 -584.125 227.3125 C-588.04391252 223.01258209 -591.71670869 218.55330453 -595.375 214.03125 C-598.25859513 210.54690588 -601.2971972 207.22045976 -604.34375 203.87890625 C-607.64025265 200.17034077 -610.75735469 196.32401234 -613.875 192.46484375 C-615.44677538 190.45653815 -615.44677538 190.45653815 -616.625 189.3125 C-618.25079218 189.18968048 -619.88177004 189.13467496 -621.51196289 189.10717773 C-622.55296646 189.08723251 -623.59397003 189.06728729 -624.66651917 189.04673767 C-625.7987944 189.03002518 -626.93106964 189.01331268 -628.09765625 188.99609375 C-629.82682533 188.9649221 -629.82682533 188.9649221 -631.59092712 188.93312073 C-635.28972157 188.86750036 -638.98858959 188.80868245 -642.6875 188.75 C-645.18815879 188.70682665 -647.68881001 188.66321276 -650.18945312 188.61914062 C-656.33455662 188.51180632 -662.47973404 188.41006357 -668.625 188.3125 C-668.82579163 188.92774536 -669.02658325 189.54299072 -669.23345947 190.17687988 C-669.49963074 190.98540405 -669.765802 191.79392822 -670.04003906 192.62695312 C-670.30270569 193.42782349 -670.56537231 194.22869385 -670.83599854 195.05383301 C-673.75752853 203.41726914 -678.95726058 210.60684122 -684.625 217.3125 C-685.29273438 218.12589844 -685.96046875 218.93929687 -686.6484375 219.77734375 C-701.15051631 236.76624113 -723.30718963 248.30389707 -745.625 250.3125 C-771.5511605 251.77754469 -795.94869714 245.90689679 -816.0625 228.62890625 C-835.68833859 210.88786619 -847.2780978 188.16257774 -848.84765625 161.53515625 C-849.45232753 134.79816978 -840.24769087 111.41548858 -822.03515625 91.77001953 C-805.57401538 74.75599408 -782.04758454 65.44724972 -758.63671875 64.31640625 C-734.28314596 63.98461371 -711.63858153 71.84609725 -693.625 88.3125 C-692.36429688 89.43398437 -692.36429688 89.43398437 -691.078125 90.578125 C-686.15873801 95.19196 -682.0930031 100.12989795 -678.3125 105.6875 C-677.91603271 106.26322754 -677.51956543 106.83895508 -677.11108398 107.43212891 C-674.58033986 111.30668275 -672.73552648 115.28613961 -670.97973633 119.56884766 C-670.53664627 120.64558746 -670.09355621 121.72232727 -669.63703918 122.83169556 C-669.30306625 123.65036102 -668.96909332 124.46902649 -668.625 125.3125 C-667.73265656 125.31614563 -666.84031311 125.31979126 -665.92092896 125.32354736 C-657.47675798 125.36154637 -649.03296855 125.41853346 -640.58906746 125.49640274 C-636.24881693 125.53577063 -631.90876603 125.56801112 -627.56835938 125.58349609 C-623.37299424 125.59873364 -619.17817834 125.63330325 -614.98305893 125.68080902 C-613.38928906 125.69555012 -611.79544075 125.70353681 -610.20160294 125.70438385 C-598.39576101 125.71695848 -588.69416079 126.70137652 -579.75 135.140625 C-572.70316394 142.34290597 -566.12449028 149.81491243 -559.8046875 157.6640625 C-557.64742601 160.28525119 -555.41189 162.80404281 -553.125 165.3125 C-549.20608748 169.61241791 -545.53329131 174.07169547 -541.875 178.59375 C-539.68998431 181.23397729 -537.43328609 183.7797972 -535.125 186.3125 C-531.20608748 190.61241791 -527.53329131 195.07169547 -523.875 199.59375 C-521.68998431 202.23397729 -519.43328609 204.7797972 -517.125 207.3125 C-513.20608748 211.61241791 -509.53329131 216.07169547 -505.875 220.59375 C-503.68998431 223.23397729 -501.43328609 225.7797972 -499.125 228.3125 C-495.21539263 232.60220809 -491.54992365 237.04950132 -487.90234375 241.5625 C-484.87275341 245.22087324 -481.68898217 248.72446999 -478.47265625 252.21875 C-476.625 254.3125 -476.625 254.3125 -474.625 257.3125 C-474.51019287 256.69020508 -474.39538574 256.06791016 -474.27709961 255.42675781 C-467.81523575 221.01820088 -455.00973993 189.80210456 -431.625 163.3125 C-431.18752441 162.80944336 -430.75004883 162.30638672 -430.29931641 161.78808594 C-415.54196046 144.89175974 -398.31892708 131.9809566 -378.625 121.3125 C-376.99498047 120.41724609 -376.99498047 120.41724609 -375.33203125 119.50390625 C-333.21576399 97.33485115 -281.74853223 94.40021725 -236.625 108.3125 C-233.35751561 109.37093277 -230.10715001 110.45172734 -226.875 111.61328125 C-224.540215 112.46088211 -224.540215 112.46088211 -221.625 112.3125 C-219.78368751 110.19507617 -219.78368751 110.19507617 -218 107.4375 C-214.54640131 102.50107178 -210.84134652 98.05158124 -206.7578125 93.62890625 C-204.93044753 91.64424064 -203.17822275 89.62250104 -201.4375 87.5625 C-192.70205587 77.57044906 -183.11429933 68.43612757 -172.625 60.3125 C-171.64402344 59.52617188 -170.66304687 58.73984375 -169.65234375 57.9296875 C-135.18376617 30.50953374 -93.59499367 12.08601368 -50.375 4.0625 C-49.56160156 3.91135742 -48.74820313 3.76021484 -47.91015625 3.60449219 C-31.94173266 0.82819248 -16.18198897 -0.06360571 0 0 Z M-130.625 107.3125 C-131.63433594 108.11816406 -132.64367187 108.92382812 -133.68359375 109.75390625 C-153.96929514 126.26086789 -170.94378845 145.88834165 -183.6875 168.75 C-187.57278238 175.31667445 -193.64836756 181.67818172 -201.16015625 183.89453125 C-214.0816602 186.08565791 -222.40990689 183.7568595 -233.63818359 177.40722656 C-260.69937656 162.4966356 -293.74256931 158.25116126 -323.625 166.3125 C-356.96675211 176.37220713 -383.89324991 197.59204767 -400.66113281 228.20410156 C-414.8839064 255.06298757 -417.51931212 287.36432879 -408.67431641 316.38793945 C-404.97062506 327.63277835 -399.95353248 338.39881373 -393.375 348.25 C-388.04769696 356.89044766 -385.48435167 368.85875846 -387.01953125 378.890625 C-389.04348335 386.98643338 -392.81071405 394.32965188 -400.05859375 398.8203125 C-408.79394769 403.36321574 -417.07913248 404.70045766 -426.6875 402.1875 C-431.02320765 400.77368229 -434.24881526 398.71912677 -437.73828125 395.8125 C-442.52627792 392.00589395 -446.9376641 390.55869204 -452.9375 389.625 C-453.73293213 389.4997998 -454.52836426 389.37459961 -455.34790039 389.24560547 C-485.48613792 384.84302084 -517.03501092 393.64770363 -541.625 411.3125 C-568.73106384 431.53391198 -585.2071061 458.97161448 -590.625 492.3125 C-591.10202831 495.64706683 -591.44196804 498.94928776 -591.625 502.3125 C-591.66625 503.04984375 -591.7075 503.7871875 -591.75 504.546875 C-591.95223912 512.08028216 -590.93990531 519.5259719 -589.93701172 526.97558594 C-589.72774895 528.54292809 -589.52633946 530.1113374 -589.33251953 531.68066406 C-585.55554114 562.03293374 -569.98087669 589.75347522 -546 608.9375 C-524.34632805 625.59623646 -500.62873854 634.02159207 -473.41333008 635.40356445 C-463.61030718 636.02126257 -454.619207 638.33289458 -447.34765625 645.24609375 C-440.90306849 652.97667635 -438.87571438 661.48696216 -439.625 671.3125 C-440.88694589 678.89575284 -443.96253067 685.06093552 -449.625 690.3125 C-460.67486946 697.81569238 -471.74234381 697.73674238 -484.625 696.625 C-486.25586548 696.48735229 -486.25586548 696.48735229 -487.91967773 696.34692383 C-532.75777452 692.1971374 -578.70430332 670.38562145 -607.86328125 635.5078125 C-608.44464844 634.78335938 -609.02601563 634.05890625 -609.625 633.3125 C-610.38167969 632.38179687 -611.13835937 631.45109375 -611.91796875 630.4921875 C-621.08504405 619.02073144 -628.77472446 606.74154815 -635.02587891 593.4519043 C-636.54140249 590.26473945 -637.86842001 587.58014532 -640.625 585.3125 C-668.65405157 606.36814019 -685.83131323 632.04144703 -692.234375 666.6015625 C-695.66851345 699.22587774 -688.2954004 730.49370991 -667.625 756.3125 C-664.71839054 759.73923957 -661.70752473 763.04381925 -658.625 766.3125 C-658.01269531 766.98925781 -657.40039062 767.66601562 -656.76953125 768.36328125 C-644.44800386 781.47296604 -627.52241955 790.88711442 -610.625 796.6875 C-609.97499023 796.91405273 -609.32498047 797.14060547 -608.65527344 797.37402344 C-606.32997572 798.11780554 -603.99314654 798.7171825 -601.625 799.3125 C-600.6339454 799.56665334 -599.6428908 799.82080667 -598.62180424 800.08266163 C-583.56649699 803.32058272 -568.20890714 802.71911558 -552.89275205 802.66069686 C-548.58558132 802.64762068 -544.2784222 802.65213406 -539.97123718 802.65440369 C-532.52699969 802.65596917 -525.08284169 802.64663627 -517.63862419 802.62969017 C-506.87583211 802.60520571 -496.11307807 802.59748529 -485.35026116 802.5937262 C-467.88412047 802.58717646 -450.41802206 802.56725558 -432.9519043 802.53881836 C-415.9952007 802.51123941 -399.03850863 802.49002465 -382.08178711 802.47729492 C-380.51135289 802.47611267 -380.51135289 802.47611267 -378.90919273 802.47490653 C-373.65640051 802.47099113 -368.4036082 802.46720008 -363.15081584 802.46347082 C-319.64218102 802.43242096 -276.13359337 802.37940105 -232.625 802.3125 C-232.625 793.7325 -232.625 785.1525 -232.625 776.3125 C-234.68790283 776.29791748 -236.75080566 776.28333496 -238.8762207 776.26831055 C-245.7295159 776.2177351 -252.58258933 776.15110118 -259.43566608 776.07678509 C-263.58640372 776.03225809 -267.73704719 775.9929643 -271.88793945 775.96606445 C-275.90169441 775.93985352 -279.91508347 775.89932903 -283.92860985 775.84931374 C-285.45177815 775.83276424 -286.97500956 775.8211764 -288.49825478 775.81488609 C-301.5854421 775.75542884 -313.00760556 774.98794712 -322.625 765.3125 C-328.08194494 758.64141816 -330.12105569 751.21078574 -329.87109375 742.66796875 C-328.93183256 733.6778974 -325.49418808 726.37015673 -318.515625 720.5546875 C-308.83549557 713.64507787 -298.77366733 713.9845117 -287.3125 713.8984375 C-285.73208633 713.87970326 -284.15168242 713.86012821 -282.57128906 713.8397522 C-278.43517849 713.78866299 -274.29903556 713.74891389 -270.16278076 713.71160889 C-265.93265942 713.67142278 -261.70266992 713.62039746 -257.47265625 713.5703125 C-249.19019461 713.47382846 -240.90766711 713.38933666 -232.625 713.3125 C-232.61098145 711.57347412 -232.61098145 711.57347412 -232.59667969 709.79931641 C-232.55650365 705.45649202 -232.49067094 701.11435566 -232.41748047 696.77197266 C-232.38942984 694.90031846 -232.36813698 693.02854931 -232.35400391 691.15673828 C-232.17847137 669.21517091 -232.17847137 669.21517091 -225.375 660 C-217.69677299 652.49627815 -209.57991417 650.06007646 -199.06640625 649.8984375 C-197.88267677 649.86938828 -197.88267677 649.86938828 -196.67503357 649.8397522 C-194.17929553 649.78045176 -191.68351011 649.7337715 -189.1875 649.6875 C-187.48500704 649.64927449 -185.78253248 649.61022016 -184.08007812 649.5703125 C-179.92853659 649.47479172 -175.77690467 649.39058031 -171.625 649.3125 C-171.61953156 648.10886055 -171.61953156 648.10886055 -171.61395264 646.88090515 C-171.57590351 639.27581949 -171.51886154 631.67121458 -171.44109726 624.06643963 C-171.40178207 620.15780274 -171.36951628 616.24938575 -171.35400391 612.34057617 C-171.3387309 608.56014597 -171.30410096 604.78032098 -171.25669098 601.00016212 C-171.24198578 599.5663158 -171.2339653 598.13238301 -171.23311615 596.69846153 C-171.22009915 585.72748119 -170.27143006 575.77819042 -162.625 567.3125 C-162.625 566.6525 -162.625 565.9925 -162.625 565.3125 C-162.04878906 565.02503906 -161.47257813 564.73757813 -160.87890625 564.44140625 C-159.44710175 563.72426327 -158.01717964 563.00333993 -156.58984375 562.27734375 C-155.58630859 561.76880859 -155.58630859 561.76880859 -154.5625 561.25 C-153.89089844 560.90839844 -153.21929688 560.56679688 -152.52734375 560.21484375 C-145.88336318 557.06338685 -137.00914785 557.26232894 -129.91796875 558.9609375 C-121.20029407 562.53350471 -115.50645747 568.45557668 -111.53515625 576.8828125 C-109.79570169 581.52633496 -109.48676595 585.91114797 -109.41967773 590.84692383 C-109.39973251 592.14789505 -109.37978729 593.44886627 -109.35923767 594.78926086 C-109.34225711 596.1993498 -109.32537817 597.60943996 -109.30859375 599.01953125 C-109.28800625 600.46970692 -109.26700932 601.91987682 -109.24562073 603.37004089 C-109.19058545 607.17576415 -109.14109489 610.98153989 -109.09277344 614.78735352 C-109.03356048 619.35964411 -108.96743514 623.93183937 -108.90247345 628.50405121 C-108.80469742 635.44014228 -108.71568194 642.37629621 -108.625 649.3125 C-99.055 649.3125 -89.485 649.3125 -79.625 649.3125 C-79.57601562 644.96449219 -79.52703125 640.61648438 -79.4765625 636.13671875 C-79.43193947 632.64198516 -79.38544884 629.14728737 -79.33770752 625.65259552 C-79.28802862 621.9789642 -79.24154254 618.30535961 -79.203125 614.6315918 C-79.16590578 611.08473293 -79.11945385 607.53809824 -79.06693649 603.9914341 C-79.03973166 601.99824568 -79.02177853 600.00493777 -79.00405884 598.01164246 C-78.8270579 586.96155373 -78.62135686 575.08616238 -70.9375 566.40625 C-64.26223697 560.05398356 -57.26690515 557.13246588 -48.0625 556.875 C-38.6293334 557.20754406 -30.74736072 559.86999174 -24.1875 566.83984375 C-17.01919866 575.90689157 -17.16077185 586.91625301 -17.11328125 597.9453125 C-17.09640255 599.43319143 -17.0782481 600.92105638 -17.05888367 602.40890503 C-17.01172326 606.29182564 -16.98169579 610.17468956 -16.95544434 614.05780029 C-16.92017868 618.73457755 -16.86326432 623.41113717 -16.81005096 628.08773804 C-16.73193597 635.16262956 -16.68103015 642.23724408 -16.625 649.3125 C-6.725 649.3125 3.175 649.3125 13.375 649.3125 C13.41367188 642.12339844 13.41367188 642.12339844 13.453125 634.7890625 C13.47831964 631.73562513 13.50467244 628.68228425 13.53515625 625.62890625 C13.58333237 620.79247798 13.62743616 615.95627335 13.64599609 611.11962891 C13.66124571 607.21601806 13.69583571 603.31299609 13.74330902 599.4096489 C13.75803792 597.92752606 13.76603609 596.4453191 13.76688385 594.96312332 C13.77951083 583.94667193 14.80399271 574.23625594 22.59765625 565.84765625 C30.31163886 559.18480974 37.84384449 557.94246584 47.76171875 558.03515625 C55.90261516 558.66002506 63.0142391 562.10602109 68.375 568.3125 C72.79298212 574.91078498 74.47749198 580.07616729 74.58032227 588.00878906 C74.59517166 589.00452942 74.59517166 589.00452942 74.61032104 590.02038574 C74.6418126 592.20626302 74.66664437 594.392162 74.69140625 596.578125 C74.71198645 598.09699049 74.73298321 599.61585038 74.75437927 601.13470459 C74.80948984 605.12621525 74.85894753 609.11777665 74.90722656 613.109375 C74.96637 617.90190158 75.0325372 622.69433571 75.09752655 627.48678589 C75.19539745 634.76196731 75.28434818 642.0372089 75.375 649.3125 C85.275 649.3125 95.175 649.3125 105.375 649.3125 C105.43107422 642.32255859 105.43107422 642.32255859 105.48828125 635.19140625 C105.51858699 632.22457366 105.54975171 629.25779918 105.58398438 626.29101562 C105.63813973 621.59060737 105.68925553 616.89031404 105.72143555 612.18969727 C105.74760435 608.39638972 105.78810031 604.60347209 105.83818626 600.81040764 C105.85476385 599.36932189 105.86633449 597.92816884 105.87261391 596.48700142 C105.92574858 585.40482986 106.90358796 575.0752672 114.375 566.3125 C123.57471999 558.6432325 132.60462341 557.32956157 144.375 558.3125 C151.99262009 560.15618486 158.74465486 565.19401914 162.94921875 571.77734375 C166.44739675 578.44292647 167.47630357 584.34958649 167.58032227 591.86865234 C167.60026749 593.14952728 167.62021271 594.43040222 167.64076233 595.75009155 C167.65774146 597.13287234 167.67462045 598.51565435 167.69140625 599.8984375 C167.71200055 601.32476368 167.73299764 602.75108409 167.75437927 604.17739868 C167.80934444 607.9157034 167.85886543 611.65406085 167.90722656 615.39245605 C167.95762924 619.21350753 168.01321695 623.03448326 168.06835938 626.85546875 C168.17562794 634.34108153 168.27714122 641.82675767 168.375 649.3125 C169.38288574 649.32708252 170.39077148 649.34166504 171.42919922 649.35668945 C175.21290387 649.41520505 178.99604606 649.49242807 182.77929688 649.57495117 C184.40843492 649.60795249 186.03768051 649.63605935 187.66699219 649.65893555 C211.99010226 650.00960615 211.99010226 650.00960615 220.375 658.3125 C226.5509751 666.02890307 228.65550657 672.89023785 228.7890625 682.6484375 C228.81811172 683.96746567 228.81811172 683.96746567 228.8477478 685.31314087 C228.90722815 688.10449718 228.9538021 690.89589543 229 693.6875 C229.03820885 695.58725694 229.07726226 697.4869971 229.1171875 699.38671875 C229.21290357 704.0285085 229.2970504 708.67037929 229.375 713.3125 C230.17964691 713.31836624 230.98429382 713.32423248 231.81332397 713.33027649 C239.43337521 713.38841995 247.05310752 713.46061858 254.67287254 713.54821491 C258.58934812 713.59275321 262.50572363 713.63204457 266.42236328 713.65893555 C270.20919095 713.68513515 273.99563006 713.72565185 277.78221512 713.77568626 C279.21968338 713.79224333 280.65721867 713.80382655 282.09476852 713.81011391 C293.36414004 713.86434226 303.40757066 714.61641121 312.328125 722.09765625 C317.53450939 727.73128211 321.1241503 735.31617064 321.47265625 743.0390625 C321.09107842 751.92219438 319.09117065 759.33558935 313.375 766.3125 C303.5875537 775.18295802 291.81526998 775.76807208 279.1796875 775.82421875 C277.73664863 775.841099 276.29362415 775.85925364 274.85061646 775.87861633 C271.0860647 775.92576008 267.32157135 775.95579814 263.55682373 775.98205566 C259.70182768 776.01204293 255.84703229 776.05850992 251.9921875 776.10351562 C244.45320832 776.18914252 236.91425695 776.25513953 229.375 776.3125 C229.375 784.8925 229.375 793.4725 229.375 802.3125 C274.38683977 802.40387645 319.39866722 802.47460366 364.41058163 802.51676132 C369.7323801 802.52176376 375.05417837 802.52694109 380.37597656 802.53222656 C381.96509554 802.53380043 381.96509554 802.53380043 383.58631793 802.53540608 C400.70913042 802.55278093 417.83188884 802.58430244 434.95466933 802.62111118 C452.54227553 802.65860204 470.12985354 802.68075302 487.71749806 802.68885398 C498.5579479 802.6943249 509.39824486 802.71156396 520.23864761 802.74416587 C527.68625452 802.76541445 535.13378315 802.7716768 542.58141813 802.76650551 C546.86946469 802.76395972 551.15724534 802.76768359 555.44524384 802.7893219 C596.26306167 802.98486976 630.01459551 795.14516294 659.95214844 765.75830078 C682.34594931 743.00330958 693.82231608 712.64700589 693.67553711 680.98168945 C693.11223488 654.25388299 683.51825793 628.82773759 666.375 608.3125 C665.54355469 607.31734375 664.71210937 606.3221875 663.85546875 605.296875 C657.22419445 597.61991391 649.72177113 591.08142481 641.375 585.3125 C640.715 585.3125 640.055 585.3125 639.375 585.3125 C638.68277344 586.87484375 638.68277344 586.87484375 637.9765625 588.46875 C629.04482736 608.24982053 617.31018156 625.54622814 602.375 641.3125 C601.05435547 642.72982422 601.05435547 642.72982422 599.70703125 644.17578125 C568.78107464 676.68387264 523.59093445 694.55807726 479.3125 697.125 C478.46816406 697.17825439 477.62382813 697.23150879 476.75390625 697.28637695 C467.04805964 697.7102423 456.95800559 696.24472579 449.46484375 689.625 C442.93498257 682.74854321 440.19033427 675.69985601 439.875 666.25 C440.06249224 660.08284465 441.24881222 655.5920409 444.375 650.3125 C444.91125 649.260625 445.4475 648.20875 446 647.125 C451.47954121 640.63606962 459.51822389 636.95365811 467.90844727 636.03515625 C470.85436908 635.80931679 473.80115899 635.62111807 476.75 635.4375 C510.96691122 632.89542032 540.64571791 618.14462816 563.375 592.3125 C579.00799966 573.56717211 588.16517049 551.51412677 590.375 527.3125 C590.63603516 525.73855469 590.63603516 525.73855469 590.90234375 524.1328125 C594.7743165 492.83703276 587.15381218 461.84793062 568.0625 436.6875 C556.26676903 421.66528968 542.45310615 409.95039003 525.375 401.3125 C524.46741943 400.8486792 524.46741943 400.8486792 523.54150391 400.37548828 C501.88689596 389.53401616 477.31664878 385.95881952 453.4375 389.625 C452.65705322 389.74262695 451.87660645 389.86025391 451.07250977 389.98144531 C444.05776423 391.15244136 437.69159174 393.00534361 431.9375 397.3125 C424.63444971 402.33959969 417.24486414 404.4809851 408.375 403.3125 C400.73993803 401.52103295 394.44320713 398.39205005 389.375 392.3125 C383.90998936 383.46763241 381.77675135 374.8933821 383.953125 364.5703125 C386.08909086 357.87114685 389.70496169 353.01535682 394.00390625 347.5234375 C402.06493228 336.60718808 406.6819361 324.26967311 410.375 311.3125 C410.71660156 310.16007813 411.05820313 309.00765625 411.41015625 307.8203125 C418.82489267 277.95444396 411.77718885 246.33489304 396.54394531 220.22705078 C393.52928468 215.28950511 390.07399024 210.76009541 386.375 206.3125 C385.61703125 205.39082031 384.8590625 204.46914062 384.078125 203.51953125 C362.93480915 179.02506893 332.09621586 165.14844288 300.1640625 162.56640625 C275.67370548 161.02522838 252.41742325 167.39600795 231.13232422 179.2409668 C222.19489623 184.20127181 213.54977279 185.71310601 203.375 184.3125 C191.54989515 180.80629642 186.63107457 173.10742763 180.63500977 163.06591797 C180.17795654 162.30166504 179.72090332 161.53741211 179.25 160.75 C178.5537854 159.58428467 178.5537854 159.58428467 177.84350586 158.39501953 C172.77327358 150.06027378 166.76643037 142.66134301 160.375 135.3125 C159.90594238 134.76899902 159.43688477 134.22549805 158.95361328 133.66552734 C122.84161206 92.1178702 70.17949811 66.60603864 15.37988281 62.49121094 C-36.84156571 59.38541793 -89.63608371 74.3296719 -130.625 107.3125 Z M-777.625 137.3125 C-783.20824115 144.22702493 -785.14685578 151.66102344 -784.9296875 160.48046875 C-783.96075812 169.48654313 -779.31338093 176.38608652 -772.625 182.3125 C-764.90778997 187.29223268 -757.61408108 188.04502116 -748.625 187.3125 C-741.0357122 185.40078259 -734.43449157 180.43959432 -730.05078125 174 C-725.42586616 165.94284134 -724.03448185 157.73819332 -726.30859375 148.55078125 C-729.65569034 139.4816772 -735.09599018 133.73239173 -743.625 129.3125 C-755.84238225 123.73499941 -768.50254814 128.43803712 -777.625 137.3125 Z M727.375 139.3125 C721.85723781 147.86350716 720.92975997 157.24254201 722.953125 167.140625 C725.60317805 174.80168746 730.86511511 180.49096999 737.69140625 184.76171875 C745.53367638 188.44383899 754.46912701 188.89578527 762.69140625 186.2421875 C771.5309272 182.19304524 777.13582938 176.95742896 780.8125 167.9375 C783.55012366 159.39422616 783.25724746 151.444632 779.375 143.3125 C775.07212873 135.79626654 768.96082394 131.18079864 761 127.9375 C747.31556247 125.57811422 736.7091095 128.77829071 727.375 139.3125 Z M-902.453125 507.4921875 C-908.1875439 515.75977204 -909.57486678 523.33303542 -908.625 533.3125 C-906.46517173 541.84674034 -902.2571185 547.81983339 -894.8125 552.5625 C-886.7216738 557.10911472 -879.80560682 558.26881315 -870.625 556.3125 C-862.04241891 553.29733667 -855.42956748 548.19772956 -851.25 540.0625 C-847.99156737 532.9789508 -847.35374369 525.35923438 -849.2734375 517.73828125 C-852.81681771 509.06154253 -859.247109 502.4183315 -867.625 498.3125 C-880.02408994 493.66284127 -893.85725996 497.24327149 -902.453125 507.4921875 Z M852.375 506.3125 C845.90672027 515.14523492 844.47344847 522.43127394 845.375 533.3125 C847.51691164 541.84522409 851.7526434 547.82605231 859.1875 552.5625 C867.2783262 557.10911472 874.19439318 558.26881315 883.375 556.3125 C891.93132594 553.30656042 898.54075068 548.21277191 902.75 540.125 C906.00388669 533.17865929 906.6558989 525.25862166 904.7265625 517.80859375 C901.17767771 509.08804352 894.79708655 502.43999083 886.375 498.3125 C873.95943923 493.65666471 861.5483585 496.89405177 852.375 506.3125 Z M-170.625 712.3125 C-170.625 823.5225 -170.625 934.7325 -170.625 1049.3125 C-59.085 1049.3125 52.455 1049.3125 167.375 1049.3125 C167.375 938.1025 167.375 826.8925 167.375 712.3125 C55.835 712.3125 -55.705 712.3125 -170.625 712.3125 Z M-905 849.375 C-909.09451938 856.77663119 -909.61437963 863.99994432 -908.625 872.3125 C-905.7066912 881.46440222 -900.62873331 887.91511713 -892.3125 892.62109375 C-884.22994042 896.36445868 -875.77871778 896.72739081 -867.375 893.75 C-858.24234909 889.54282374 -853.37649345 883.52217492 -849.625 874.3125 C-847.12647797 866.8169339 -848.02979797 858.72134453 -851.31640625 851.625 C-856.03141341 843.29280824 -862.47179729 838.26306181 -871.625 835.3125 C-885.92599384 833.2784418 -896.27091409 838.11907344 -905 849.375 Z M849 849.375 C844.90548062 856.77663119 844.38562037 863.99994432 845.375 872.3125 C848.2933088 881.46440222 853.37126669 887.91511713 861.6875 892.62109375 C869.77005958 896.36445868 878.22128222 896.72739081 886.625 893.75 C895.75765091 889.54282374 900.62350655 883.52217492 904.375 874.3125 C906.87352203 866.8169339 905.97020203 858.72134453 902.68359375 851.625 C897.96858659 843.29280824 891.52820271 838.26306181 882.375 835.3125 C868.07400616 833.2784418 857.72908591 838.11907344 849 849.375 Z M-709.625 1239.3125 C-710.676875 1239.869375 -711.72875 1240.42625 -712.8125 1241 C-719.3805792 1246.40042068 -723.30592286 1253.94578216 -724.625 1262.3125 C-725.04109041 1271.11344266 -722.45392896 1278.44948073 -717.01953125 1285.3515625 C-711.97733602 1290.77451846 -705.3081991 1294.91682805 -697.8046875 1295.55078125 C-690.38161033 1295.71749339 -685.05521322 1295.06345771 -678.625 1291.3125 C-677.573125 1290.755625 -676.52125 1290.19875 -675.4375 1289.625 C-667.99114072 1283.50243793 -664.25167977 1274.86309222 -663.1875 1265.4375 C-663.58025824 1256.86512451 -667.62838245 1248.36413239 -673.625 1242.3125 C-684.32715793 1233.92200818 -697.77004401 1232.39710901 -709.625 1239.3125 Z M668.375 1245.3125 C663.40470526 1252.55644021 660.32984768 1260.40382069 661.375 1269.3125 C663.2235344 1278.02701931 667.49978769 1285.63453287 674.875 1290.75 C681.86621009 1294.94240339 688.23812948 1296.48700277 696.375 1295.3125 C705.74420635 1292.2051844 712.36081787 1286.80322839 717.52734375 1278.44921875 C720.68603109 1271.6514907 720.50651206 1262.83181305 718.71875 1255.69140625 C715.13930252 1246.78907351 708.31563356 1240.07558538 699.6875 1236.0625 C688.00598005 1233.41762756 676.40185544 1236.05704424 668.375 1245.3125 Z M-442.01171875 1339.97265625 C-447.04118261 1347.26720553 -448.76437644 1355.0662756 -447.1875 1363.7109375 C-445.04774121 1372.4037076 -440.39129507 1378.80077594 -432.9375 1383.75 C-425.55066322 1387.78020426 -417.05418637 1389.5563689 -408.84375 1387.19140625 C-400.45848118 1383.86977688 -394.18047087 1379.18334133 -389.625 1371.3125 C-386.0334273 1362.92361234 -385.7773541 1355.46890141 -388.58203125 1346.8046875 C-391.59454014 1339.60625803 -397.07551875 1333.47385792 -404.1328125 1330.12109375 C-418.72248029 1324.28929061 -431.83967175 1327.86092845 -442.01171875 1339.97265625 Z M388.0625 1340.6875 C383.79278224 1347.32928318 382.35630231 1354.50248441 383.375 1362.3125 C385.37617892 1371.21082388 389.77311864 1378.49106155 397.390625 1383.6875 C399.35587248 1384.7397585 401.27658834 1385.56365505 403.375 1386.3125 C404.01179688 1386.54710937 404.64859375 1386.78171875 405.3046875 1387.0234375 C412.77255826 1389.33277906 419.70967776 1388.35930818 426.6875 1385 C435.15116444 1380.32583899 440.29920542 1374.78409486 443.3046875 1365.4140625 C445.07115972 1357.10510059 444.19925364 1349.50632868 440.11328125 1341.9921875 C434.82134524 1334.36600027 427.50352973 1329.15035707 418.375 1327.3125 C405.32688277 1325.62146401 396.77425547 1331.74029168 388.0625 1340.6875 Z " fill="#106309" transform="translate(989.625,12.6875)"/>
<path d="M0 0 C1.58129233 -0.00407215 3.16258181 -0.00941762 4.74386597 -0.01593018 C9.01247597 -0.02953314 13.28086691 -0.02433434 17.54948044 -0.01479292 C22.03177195 -0.00715975 26.51404559 -0.01425204 30.99633789 -0.01895142 C38.52135562 -0.02439836 46.0462848 -0.01724528 53.57128906 -0.00292969 C62.25211591 0.01339478 70.93273132 0.00810552 79.61355305 -0.0084089 C87.08732815 -0.02205409 94.56103987 -0.02392864 102.03482342 -0.0160929 C106.4895696 -0.01143301 110.94421662 -0.0107449 115.3989563 -0.02070236 C119.58845975 -0.02941403 123.77769248 -0.02327403 127.9671669 -0.00601959 C129.49812497 -0.00207706 131.02910611 -0.00315017 132.56005478 -0.00980759 C144.3772258 -0.0564294 154.95328993 0.56886009 163.9296875 9.07177734 C173.0685673 18.67436352 173.74141051 28.97089992 173.66992188 41.69482422 C173.67535096 43.32537966 173.68247801 44.9559302 173.69116211 46.58647156 C173.70930507 50.98942673 173.70236553 55.39200448 173.68964577 59.79496574 C173.67947106 64.41739748 173.68892381 69.03979835 173.69519043 73.66223145 C173.70245387 81.42266602 173.69291344 89.182948 173.67382812 96.94335938 C173.65206188 105.89689633 173.65911418 114.85006885 173.68113375 123.80359697 C173.69932499 131.51092905 173.70182791 139.21815186 173.69137907 146.92549849 C173.68516457 151.51999854 173.68425196 156.11432767 173.69752502 160.70881653 C173.7091373 165.02971648 173.70096041 169.35014965 173.677948 173.67099953 C173.67268947 175.25033102 173.67412536 176.82970225 173.68299866 178.40901756 C173.74685739 190.93635067 172.14483415 200.19665484 163.2890625 209.47802734 C153.67767462 218.07029183 140.97823208 217.68567283 128.81713867 217.6628418 C127.27864842 217.66719571 125.74016033 217.67238111 124.20167542 217.67832947 C120.04448575 217.69165894 115.88738735 217.69230482 111.7301805 217.68976617 C108.24890779 217.68869215 104.76765321 217.69359091 101.2863844 217.69837159 C93.06680416 217.70944626 84.84726963 217.70991595 76.62768555 217.70385742 C68.1735734 217.6978214 59.71962785 217.71012387 51.26554412 217.73142749 C43.98454522 217.74909431 36.7035991 217.75503679 29.42257959 217.75178975 C25.08399789 217.74998453 20.745535 217.75253631 16.40697289 217.76650429 C12.3233693 217.77916072 8.2400236 217.77706541 4.15642357 217.7640934 C2.66661488 217.76174482 1.1767876 217.76439987 -0.31299973 217.77271652 C-14.1756523 217.84446081 -25.34843146 216.63572292 -35.5625 206.72412109 C-43.67090658 198.04079082 -43.28677257 188.34438774 -43.25170898 177.10913086 C-43.25741739 175.45754536 -43.26438347 173.80596381 -43.27250671 172.15438843 C-43.29040099 167.6853349 -43.28927682 163.21647812 -43.28356433 158.74739957 C-43.28046716 155.00989851 -43.28657078 151.27243495 -43.29260308 147.53493923 C-43.30663436 138.71474852 -43.30509857 129.8946547 -43.29370117 121.07446289 C-43.28222032 111.98917619 -43.29629824 102.90418469 -43.32309765 93.81893688 C-43.34528098 86.00466577 -43.35188612 78.19048714 -43.34602123 70.37618679 C-43.34265688 65.7151669 -43.34503206 61.05433624 -43.36227226 56.39334297 C-43.37778146 52.00929415 -43.37374202 47.62568147 -43.35496712 43.24164963 C-43.35129225 41.6377044 -43.35435742 40.03372657 -43.36485291 38.42981148 C-43.41571164 30.01147625 -43.28521638 22.78227336 -38.84765625 15.38818359 C-38.29078125 14.33630859 -37.73390625 13.28443359 -37.16015625 12.20068359 C-27.59297522 0.56492288 -14.01560714 -0.06094763 0 0 Z M19.15234375 63.38818359 C19.15234375 93.41818359 19.15234375 123.44818359 19.15234375 154.38818359 C49.51234375 154.38818359 79.87234375 154.38818359 111.15234375 154.38818359 C111.15234375 124.35818359 111.15234375 94.32818359 111.15234375 63.38818359 C80.79234375 63.38818359 50.43234375 63.38818359 19.15234375 63.38818359 Z " fill="#106309" transform="translate(922.84765625,784.61181640625)"/>
<path d="M0 0 C7.87314869 4.66101337 13.34152376 10.69878061 16 19.51953125 C21.5126784 43.88978711 15.65603783 73.54357437 4.25 95.33203125 C3.78851562 96.26144531 3.32703125 97.19085938 2.8515625 98.1484375 C-11.56248702 126.14036239 -36.95538027 146.38269548 -66.59375 156.08203125 C-97.82969527 165.77794735 -131.21190478 162.51143487 -160.26953125 147.78125 C-188.62687287 132.69473407 -209.75802555 106.16210368 -219.10742188 75.59619141 C-223.40473276 60.48640933 -227.83689512 40.06264896 -220.75 25.33203125 C-216.37019681 17.86203359 -210.15404667 12.53426671 -201.8984375 9.6953125 C-192.97005019 8.18560337 -183.45357569 8.20135903 -175.75 13.33203125 C-168.45668706 18.57949684 -162.99637738 24.99207471 -161.0703125 33.95703125 C-160.66610045 36.95411573 -160.53005007 39.93692546 -160.375 42.95703125 C-159.31125248 59.79669546 -152.80292061 72.70957209 -140.75 84.33203125 C-127.13557292 95.99505712 -111.0737126 98.65217297 -93.75 97.33203125 C-79.56172309 94.7456266 -66.63343333 87.14765639 -57.74609375 75.765625 C-50.98319788 65.73083134 -46.76146596 54.73310204 -46.5390625 42.59375 C-46.51070312 41.52576172 -46.48234375 40.45777344 -46.453125 39.35742188 C-46.40131978 37.14404372 -46.35696718 34.93047776 -46.3203125 32.71679688 C-46.01651791 22.19157998 -43.77903054 13.42606641 -36.75 5.33203125 C-26.31164906 -3.4227147 -12.58831345 -5.859363 0 0 Z " fill="#106309" transform="translate(1245.75,269.66796875)"/>
<path d="M0 0 C34.6604354 26.59941402 57.5308353 63.64945698 63.6965332 107.21923828 C65.35551994 120.71268629 67.11280055 135.26072029 58.9296875 146.8828125 C53.5408828 153.57874145 46.98847344 158.07633747 38.47265625 159.69140625 C28.59292786 160.61351423 20.64549385 158.18503513 12.55078125 152.49609375 C5.70350589 146.54977568 2.54038964 138.65946983 1.796875 129.76171875 C1.69415283 128.64450439 1.59143066 127.52729004 1.4855957 126.3762207 C1.37820068 125.20148193 1.27080566 124.02674316 1.16015625 122.81640625 C-1.60688935 95.95516373 -12.01581438 72.81467744 -32.65234375 54.93359375 C-51.51745643 40.22085642 -72.50640373 33.7158474 -96.12109375 33.26171875 C-106.32662172 32.92341396 -114.97943134 30.86598105 -122.52734375 23.69140625 C-129.31773819 16.39288706 -132.21499768 8.48081479 -131.8671875 -1.48046875 C-130.74210725 -10.84320557 -126.70055686 -18.20216618 -119.52734375 -24.30859375 C-86.40218695 -45.38365546 -27.91471113 -20.89662805 0 0 Z " fill="#106309" transform="translate(848.52734375,322.30859375)"/>
<path d="M0 0 C1.02931641 -0.02900391 2.05863281 -0.05800781 3.11914062 -0.08789062 C12.56237128 -0.16553895 20.65089817 2.04140913 27.65625 8.6171875 C34.2472217 15.91433473 36.75069119 23.91838444 36.49609375 33.66796875 C35.47442494 42.42328245 31.73299243 49.47068119 25.1875 55.3125 C17.67416403 61.00926538 10.48819983 62.52822392 1.25 63.1875 C-22.49366171 65.25225538 -43.22671782 74.33373514 -58.90625 92.80859375 C-69.8540795 107.188837 -76.06574985 122.76449717 -77.42163086 140.74731445 C-78.28716527 151.93068406 -80.15591503 161.13975148 -88.5 169.3125 C-96.22839172 175.32183881 -105.15946521 177.49946576 -114.8125 176.3125 C-124.34381212 174.22611829 -131.14053818 169.16809846 -136.8125 161.3125 C-145.57370388 147.4384528 -140.64382308 125.89366137 -137.25878906 110.85205078 C-132.44846616 91.10129149 -123.61701072 72.12954674 -110.8125 56.3125 C-110.38501465 55.76980469 -109.9575293 55.22710938 -109.51708984 54.66796875 C-99.36165673 41.81470476 -87.74530257 31.00920845 -73.8125 22.3125 C-73.22162598 21.9402832 -72.63075195 21.56806641 -72.02197266 21.18457031 C-50.29915204 7.70619497 -25.56372754 0.237434 0 0 Z " fill="#106309" transform="translate(730.8125,495.6875)"/>
<path d="M0 0 C6.98443952 5.47388622 11.0913827 12.82450604 12.27514648 21.6418457 C12.40579898 23.00389385 12.52825089 24.36675014 12.64306641 25.73022461 C13.73662495 38.63038356 17.57389291 49.41811987 27.01171875 58.6796875 C35.97357184 65.69561385 44.34834446 68.47980777 55.44921875 69.6171875 C66.13478977 70.73149854 74.69165738 73.35108435 82.01171875 81.6796875 C87.97215668 90.45724783 88.81016695 98.14017122 88.01171875 108.6796875 C86.16838703 116.8081141 81.60327666 123.56177149 74.69921875 128.25 C61.04496884 136.11017676 42.66725125 133.60659965 28.01171875 129.6796875 C12.24815891 124.93097768 -1.64286715 117.58958834 -13.98828125 106.6796875 C-14.93574219 105.92945313 -14.93574219 105.92945313 -15.90234375 105.1640625 C-34.54953719 90.34848415 -47.24845214 64.12390709 -49.98828125 40.6796875 C-51.26565137 28.58151857 -52.35262206 17.04146462 -44.75390625 6.75 C-33.13576829 -6.87303787 -15.48480504 -10.28264067 0 0 Z " fill="#106309" transform="translate(1275.98828125,501.3203125)"/>
</svg>
